<?xml version="1.0" encoding="UTF-8"?>
<svg xmlns="http://www.w3.org/2000/svg" xmlns:xlink="http://www.w3.org/1999/xlink" width="512" height="512" viewBox="0 0 512 512">
<path fill-rule="nonzero" fill="rgb(20%, 5.882353%, 3.921569%)" fill-opacity="1" d="M 388.351562 10.433594 C 402.6875 6.847656 417.871094 10.0625 429.523438 19.148438 C 441.171875 28.238281 447.988281 42.183594 448 56.960938 L 448 96 L 464 96 C 490.507812 96 512 117.492188 512 144 L 512 432 C 512 458.507812 490.507812 480 464 480 L 48 480 C 21.492188 480 0 458.507812 0 432 L 0 144 C -0.0078125 118.328125 20.179688 97.195312 45.824219 96.03125 Z M 177.984375 96 L 416 96 L 416 56.960938 C 415.988281 52.039062 413.714844 47.402344 409.835938 44.375 C 405.957031 41.351562 400.902344 40.28125 396.128906 41.472656 Z M 48 128 C 39.164062 128 32 135.164062 32 144 L 32 432 C 32 440.835938 39.164062 448 48 448 L 464 448 C 472.835938 448 480 440.835938 480 432 L 480 144 C 480 135.164062 472.835938 128 464 128 Z M 48 128 "/>
</svg>
